# xmcd
#
# Track frame offsets:
#	150
#	23550
#	33502
#	58909
#	78716
#	92820
#	102908
#	119102
#
# Disc length: 1798 seconds
# Revision: 0
# Processed by: cddbd v1.5.2PL0 Copyright (c) Steve Scherf et al.
# Submitted via: dBpowerAMP V12.0
#
DISCID=6a070408
DTITLE=B. Goldberg, H. Mandel, C. Musselwhite - Chicago Anthology
DYEAR=1966
DGENRE=Blues
TTITLE0=Big Boss Man
TTITLE1=Times I've Had
TTITLE2=Funk
TTITLE3=I Loved and Lost
TTITLE4=Slow Down I'm Gonna Loose You
TTITLE5=Aunt Lily
TTITLE6=Hoochie Coochie Man
TTITLE7=You Got Me Crying
EXTD=
EXTT0=
EXTT1=
EXTT2=
EXTT3=
EXTT4=
EXTT5=
EXTT6=
EXTT7=
PLAYORDER=
